<svg width="356" height="127" viewBox="0 0 356 127" fill="none" xmlns="http://www.w3.org/2000/svg">
<path d="M138.9 82.4H145.5L144.4 77.2999V46.7H138.1V60.5999C136.2 58.3999 133.6 57.0999 130.5 57.0999C124.2 57.0999 119.3 62.3 119.3 70C119.3 77.7 124.2 82.9 130.5 82.9C133.6 82.9 136.3 81.5999 138.3 79.2999L138.9 82.4ZM263.9 64C265.2 64 266.4 64.2999 267.5 65.0999L270.5 58.2999C269.1 57.3999 267.5 57.0999 265.9 57.0999C263 57.0999 260.7 58.3999 259.1 60.7999L258.4 57.7H252L253 62.5V82.4H259.3V66.5999C260.2 64.9999 261.8 64 263.9 64ZM282.4 76.2C278.7 76.2 276 73.8 276 70C276 66.2 278.7 63.7999 282.4 63.7999C286.1 63.7999 288.8 66.2 288.8 70C288.8 73.8 286.1 76.2 282.4 76.2ZM125.4 70C125.4 66.2 128.1 63.7999 131.8 63.7999C135.5 63.7999 138.2 66.2 138.2 70C138.2 73.8 135.5 76.2 131.8 76.2C128.1 76.2 125.4 73.8 125.4 70ZM310.4 76.2C306.7 76.2 304 73.8 304 70C304 66.2 306.7 63.7999 310.4 63.7999C314.1 63.7999 316.8 66.2 316.8 70C316.8 73.8 314.1 76.2 310.4 76.2ZM160.9 63.4C164.2 63.4 166.3 64.8999 167 67.7999H154.8C155.5 64.8999 157.6 63.4 160.9 63.4ZM236.5 63.4C239.8 63.4 241.9 64.8999 242.6 67.7999H230.4C231.1 64.8999 233.3 63.4 236.5 63.4ZM205.6 82.4H215.8L222.4 57.7H215.5L210.7 77.7L205.8 57.7H199L205.6 82.4ZM189.3 82.4H195.6V57.7H189.3V82.4ZM161.8 82.7999C165.3 82.7999 168.8 81.8 171.7 80L169.3 74.5C167 75.7 164.5 76.4 161.9 76.4C158.6 76.4 156.2 75.1 155.2 72.7H173C173.2 71.8 173.3 70.8999 173.3 69.7999C173.3 62.0999 168 57 160.9 57C153.8 57 148.5 62.2 148.5 69.9C148.6 77.8 153.8 82.7999 161.8 82.7999ZM322.9 70C322.9 62.3 317.6 57.0999 310.4 57.0999C303.2 57.0999 297.9 62.3 297.9 70C297.9 77.7 303.2 82.9 310.4 82.9C317.6 82.9 322.9 77.7 322.9 70ZM237.4 82.9C240.9 82.9 244.4 81.8999 247.3 80.0999L244.9 74.5999C242.6 75.7999 240.1 76.5 237.5 76.5C234.2 76.5 231.8 75.1999 230.8 72.7999H248.6C248.8 71.8999 248.9 71 248.9 69.9C248.9 62.2 243.6 57.0999 236.5 57.0999C229.4 57.0999 224.1 62.3 224.1 70C224.1 77.9 229.3 82.9 237.4 82.9ZM282.4 82.9C289.6 82.9 294.9 77.7 294.9 70C294.9 62.3 289.6 57.0999 282.4 57.0999C275.2 57.0999 269.9 62.3 269.9 70C269.9 77.7 275.2 82.9 282.4 82.9ZM177.4 82.4H183.7V46.7H177.4V82.4ZM192.5 54.2C194.7 54.2 196.4 52.5 196.4 50.2C196.4 47.9 194.7 46.2 192.5 46.2C190.2 46.2 188.5 47.9 188.5 50.2C188.5 52.5 190.2 54.2 192.5 54.2ZM83.9 24.2L80.3 58.5L74.1 29.6L54.7 33.6L60.9 62.5L33 68.4L37.9 91.5L87 101.9L98.2 76.7999L103.5 26.2L83.9 24.2ZM68.4 73.9C67.4 74.8 66.1 74.6999 64.6 74.2999C63.2 73.7999 62.6 72.0999 63.1 70.0999C63.5 68.5999 65.4 68.2999 66.3 68.2999C66.7 68.2999 67 68.4 67.3 68.5C68 68.8 69.1 69.4 69.3 70.4C69.7 71.8 69.4 73 68.4 73.9ZM82.6 75.5C81.9 76.8 79.9 76.9 78 76C76.7 75.4 76.7 73.7999 76.9 72.7999C77 72.2999 77.2 71.8 77.5 71.4C78 70.8 78.7 70.0999 79.6 70.0999C81 70.0999 82.3 70.7 83 71.9C83.7 72.9 83.3 74.2 82.6 75.5Z" fill="white"/>
</svg>
