<svg width="295" height="128" viewBox="0 0 295 128" fill="none" xmlns="http://www.w3.org/2000/svg">
<path d="M88.6731 63.3218C88.6731 47.3245 79.4627 35 56.049 35H31V91.6437H56.049C79.4627 91.6437 88.6731 79.3193 88.6731 63.3218ZM71.6294 63.3218C71.6294 74.5037 65.0013 78.6664 55.7909 78.6664H47.269V47.9775H55.7909C65.0013 47.9775 71.6294 52.1401 71.6294 63.3218Z" fill="white"/>
<path d="M92.5664 91.6437H139.91V78.7479H108.835V69.0353H136.123V56.7923H108.835V47.8958H139.135V35H92.5664V91.6437Z" fill="white"/>
<path d="M195.025 54.6703C195.025 40.3869 185.384 35 170.406 35H144.496V91.6437H160.765V74.3406H170.406C185.384 74.3406 195.025 68.9536 195.025 54.6703ZM178.153 54.6703C178.153 60.2204 175.399 62.5058 168.77 62.5058H160.765V46.8348H168.77C175.399 46.8348 178.153 49.1201 178.153 54.6703Z" fill="white"/>
<path d="M196.8 48.2223H215.651V91.6437H231.92V48.2223H250.771V35H196.8V48.2223Z" fill="white"/>
<path d="M244.01 83.7132C244.01 88.8392 248.386 92.9887 253.793 92.9887C259.198 92.9887 263.618 88.8392 263.618 83.7132C263.618 78.5873 259.198 74.397 253.793 74.397C248.386 74.397 244.01 78.5873 244.01 83.7132ZM245.898 83.7132C245.898 79.4824 249.416 76.0243 253.793 76.0243C258.168 76.0243 261.73 79.4824 261.73 83.7132C261.73 87.9441 258.168 91.3613 253.793 91.3613C249.416 91.3613 245.898 87.9441 245.898 83.7132ZM249.202 88.3103H252.29V85.137H254.05L255.894 88.3103H259.241L257.01 84.5676C258.041 84.1608 258.811 83.0624 258.811 81.8418C258.811 79.6857 257.352 78.6686 254.864 78.6686H249.202V88.3103ZM255.679 81.8824C255.679 82.6554 255.166 82.981 254.178 82.981H252.29V80.9467H254.178C255.166 80.9467 255.679 81.191 255.679 81.8824Z" fill="white"/>
</svg>
