<svg width="315" height="119" viewBox="0 0 315 119" fill="none" xmlns="http://www.w3.org/2000/svg">
<path d="M129.75 63.18C129.75 75.95 119.76 85.36 107.5 85.36C95.2404 85.36 85.2504 75.95 85.2504 63.18C85.2504 50.32 95.2404 41 107.5 41C119.76 41 129.75 50.32 129.75 63.18ZM120.01 63.18C120.01 55.2 114.22 49.74 107.5 49.74C100.78 49.74 94.9903 55.2 94.9903 63.18C94.9903 71.08 100.78 76.62 107.5 76.62C114.22 76.62 120.01 71.07 120.01 63.18ZM177.75 63.18C177.75 75.95 167.76 85.36 155.5 85.36C143.24 85.36 133.25 75.95 133.25 63.18C133.25 50.33 143.24 41 155.5 41C167.76 41 177.75 50.32 177.75 63.18ZM168.01 63.18C168.01 55.2 162.22 49.74 155.5 49.74C148.78 49.74 142.99 55.2 142.99 63.18C142.99 71.08 148.78 76.62 155.5 76.62C162.22 76.62 168.01 71.07 168.01 63.18ZM223.75 42.34V82.16C223.75 98.54 214.09 105.23 202.67 105.23C191.92 105.23 185.45 98.04 183.01 92.16L191.49 88.63C193 92.24 196.7 96.5 202.66 96.5C209.97 96.5 214.5 91.99 214.5 83.5V80.31H214.16C211.98 83 207.78 85.35 202.48 85.35C191.39 85.35 181.23 75.69 181.23 63.26C181.23 50.74 191.39 41 202.48 41C207.77 41 211.97 43.35 214.16 45.96H214.5V42.35H223.75V42.34ZM215.19 63.26C215.19 55.45 209.98 49.74 203.35 49.74C196.63 49.74 191 55.45 191 63.26C191 70.99 196.63 76.62 203.35 76.62C209.98 76.62 215.19 70.99 215.19 63.26ZM239 19V84H229.5V19H239ZM276.02 70.48L283.58 75.52C281.14 79.13 275.26 85.35 265.1 85.35C252.5 85.35 243.09 75.61 243.09 63.17C243.09 49.98 252.58 40.99 264.01 40.99C275.52 40.99 281.15 50.15 282.99 55.1L284 57.62L254.35 69.9C256.62 74.35 260.15 76.62 265.1 76.62C270.06 76.62 273.5 74.18 276.02 70.48ZM252.75 62.5L272.57 54.27C271.48 51.5 268.2 49.57 264.34 49.57C259.39 49.57 252.5 53.94 252.75 62.5ZM49.2904 57.41V48H81.0004C81.3104 49.64 81.4704 51.58 81.4704 53.68C81.4704 60.74 79.5404 69.47 73.3204 75.69C67.2704 81.99 59.5403 85.35 49.3004 85.35C30.3204 85.35 14.3604 69.89 14.3604 50.91C14.3604 31.93 30.3204 16.47 49.3004 16.47C59.8004 16.47 67.2804 20.59 72.9004 25.96L66.2603 32.6C62.2303 28.82 56.7704 25.88 49.2904 25.88C35.4304 25.88 24.5904 37.05 24.5904 50.91C24.5904 64.77 35.4304 75.94 49.2904 75.94C58.2804 75.94 63.4004 72.33 66.6804 69.05C69.3404 66.39 71.0903 62.59 71.7803 57.4L49.2904 57.41Z" fill="white"/>
</svg>
