<svg width="289" height="105" viewBox="0 0 289 105" fill="none" xmlns="http://www.w3.org/2000/svg">
<path d="M141.001 37.5C132.401 37.5 126.201 43.1 126.201 51.6C126.201 60.1 133.201 65.7 141.801 65.7C147.001 65.7 151.601 63.6 154.401 60.2L148.401 56.7C146.801 58.4 144.401 59.4 141.701 59.4C138.001 59.4 134.801 57.4 133.601 54.3H155.501C155.701 53.4 155.801 52.5 155.801 51.6C155.801 43.1 149.601 37.5 141.001 37.5ZM133.601 48.8C134.601 45.7 137.201 43.7 141.001 43.7C144.701 43.7 147.401 45.7 148.401 48.8H133.601ZM131.801 28.9L110.201 66.4L88.5008 28.9H96.6008L110.101 52.3L123.701 28.9H131.801ZM58.7008 25L87.6008 75H29.8008L58.7008 25ZM187.201 51.6C187.201 56.3 190.301 59.4 195.001 59.4C198.201 59.4 200.601 57.9 201.901 55.6L207.901 59.1C205.401 63.2 200.801 65.7 195.001 65.7C186.401 65.7 180.201 60.1 180.201 51.6C180.201 43.1 186.401 37.5 195.001 37.5C200.701 37.5 205.401 40 207.901 44.1L201.901 47.6C200.701 45.2 198.201 43.8 195.001 43.8C190.301 43.8 187.201 46.9 187.201 51.6ZM251.701 28.9V64.8H244.701V28.9H251.701ZM225.101 37.5C216.501 37.5 210.301 43.1 210.301 51.6C210.301 60.1 217.301 65.7 225.901 65.7C231.101 65.7 235.701 63.6 238.501 60.2L232.501 56.7C230.901 58.4 228.501 59.4 225.801 59.4C222.101 59.4 218.901 57.4 217.701 54.3H239.601C239.801 53.4 239.901 52.5 239.901 51.6C240.001 43.1 233.701 37.5 225.101 37.5ZM217.701 48.8C218.701 45.7 221.301 43.7 225.101 43.7C228.901 43.7 231.501 45.7 232.501 48.8H217.701ZM177.901 38.3V45.9C177.101 45.7 176.301 45.5 175.401 45.5C170.901 45.5 167.601 48.6 167.601 53.3V64.9H160.601V38.3H167.601V45.5C167.601 41.5 172.201 38.3 177.901 38.3Z" fill="white"/>
</svg>
