<svg width="324" height="111" viewBox="0 0 324 111" fill="none" xmlns="http://www.w3.org/2000/svg">
<path d="M41.3008 45.3C34.6008 45.3 31.3008 51.2 31.3008 59.1V78.9H21.8008V37.2H31.1008V48H31.3008C33.3008 41.3 37.2008 36 43.3008 36C47.6008 36 49.4008 37.5 49.4008 37.5L45.1008 46.1C45.1008 46.1 43.8008 45.3 41.3008 45.3ZM155.601 51.1V79H146.401V54.5C146.401 47.5 144.201 43.8 138.601 43.8C132.801 43.8 130.001 48.5 130.001 57.5V79H120.801V54.5C120.801 47.8 118.601 43.8 113.101 43.8C106.701 43.8 104.301 49.4 104.301 57.5V79H95.0008V37.2H104.301V46.7H104.401C105.801 40.2 109.801 36.1 116.501 36.1C123.101 36.1 127.401 39.7 129.101 46C130.701 39.9 134.801 36.1 141.201 36.1C149.901 36.1 155.601 41.6 155.601 51.1ZM68.0008 36C59.4008 36 53.9008 40 51.3008 47.3L59.2008 50.2C60.6008 45.8 63.6008 43.3 68.2008 43.3C73.3008 43.3 76.4008 45.6 76.4008 49C76.4008 52.5 74.0008 53.3 68.6008 54.2C62.6008 55.2 48.2008 55.5 48.2008 67.6C48.2008 74.7 54.1008 80 63.0008 80C69.7008 80 74.3008 77.3 76.4008 72.2H76.5008V79H85.7008V53.3C85.6008 42 80.0008 36 68.0008 36ZM76.6008 59.3C76.6008 68.1 72.3008 73.7 65.3008 73.7C60.4008 73.7 57.5008 71 57.5008 67C57.5008 63.3 60.5008 60.7 66.3008 59.6C72.2008 58.5 75.2008 57.2 76.6008 53.9V59.3ZM188.401 36.1C181.401 36.1 176.701 40 174.701 45.8V37.2H164.901V95H174.601V70.4H174.701C176.901 76.7 181.401 80.2 188.401 80.2C199.601 80.2 207.601 71 207.601 58C207.601 45 199.601 36.1 188.401 36.1ZM186.001 72.4C178.301 72.4 174.001 66.8 174.001 58.1C174.001 49.4 178.801 43.8 186.001 43.8C193.201 43.8 198.001 49.7 198.001 58.1C198.001 66.5 193.201 72.4 186.001 72.4Z" fill="white"/>
<path d="M303.701 78.7V79H265.801V78.7C271.301 75.6 275.001 72.5 278.401 69.2H294.001L303.701 78.7ZM294.301 29.4L284.701 20H284.401C284.401 20 284.601 37.5 268.401 53.5C252.601 69.1 234.101 69.2 234.101 69.2V69.5L243.901 79.1C243.901 79.1 262.201 79.3 278.301 63.4C294.401 47.6 294.301 29.4 294.301 29.4Z" fill="white"/>
</svg>
