<svg width="1160" height="354" viewBox="0 0 1160 354" fill="none" xmlns="http://www.w3.org/2000/svg">
<path fill-rule="evenodd" clip-rule="evenodd" d="M293.812 109.036H291.602C279.97 109.018 270.53 118.44 270.53 130.072V177.118C270.53 186.513 262.766 194.123 253.525 194.123C248.035 194.123 242.554 191.359 239.302 186.721L191.25 118.096C187.264 112.397 180.778 109 173.757 109C162.803 109 152.947 118.313 152.947 129.81V177.127C152.947 186.522 145.246 194.132 135.942 194.132C130.434 194.132 124.962 191.369 121.71 186.73L67.9418 109.942C66.7279 108.212 64.001 109.063 64.001 111.183V152.214C64.001 154.288 64.6351 156.299 65.822 158.003L118.729 233.567C121.855 238.033 126.466 241.349 131.784 242.554C145.092 245.58 157.341 235.334 157.341 222.279V174.989C157.341 165.594 164.951 157.984 174.345 157.984H174.373C180.035 157.984 185.344 160.748 188.596 165.386L236.647 234.002C240.642 239.709 246.794 243.098 254.132 243.098C265.33 243.098 274.923 233.775 274.923 222.288V174.98C274.923 165.585 282.533 157.975 291.928 157.975H293.803C294.981 157.975 295.932 157.024 295.932 155.846V111.156C295.932 109.978 294.981 109.027 293.803 109.027L293.812 109.036ZM569.663 144.441H557.904C556.708 144.441 555.739 145.41 555.739 146.606V240.914C555.739 242.11 556.708 243.08 557.904 243.08H569.663C570.859 243.08 571.828 242.11 571.828 240.914V146.606C571.828 145.41 570.859 144.441 569.663 144.441ZM557.514 109.009H570.044C571.239 109.009 572.209 109.978 572.209 111.174V126.575C572.209 127.771 571.239 128.741 570.044 128.741H557.514C556.318 128.741 555.349 127.771 555.349 126.575V111.174C555.349 109.978 556.318 109.009 557.514 109.009ZM640.047 141.759C626.83 141.759 617.254 146.352 611.121 153.065C609.155 155.058 605.757 153.663 605.757 150.864V146.606C605.757 145.41 604.788 144.441 603.592 144.441H592.032C590.837 144.441 589.867 145.41 589.867 146.606V240.914C589.867 242.11 590.837 243.08 592.032 243.08H603.601C604.797 243.08 605.766 242.11 605.766 240.914V181.213C605.766 160.521 609.789 155.928 631.822 155.928C653.854 155.928 657.487 159.57 657.487 180.253V240.905C657.487 242.101 658.456 243.07 659.652 243.07H671.411C672.607 243.07 673.577 242.101 673.577 240.905V175.841C673.577 152.277 660.169 141.741 640.057 141.741V141.759H640.047ZM760.176 154.406C762.142 156.399 765.539 155.004 765.539 152.204V111.183C765.539 109.987 766.509 109.018 767.704 109.018H779.273C780.469 109.018 781.439 109.987 781.439 111.183V240.923C781.439 242.119 780.469 243.089 779.273 243.089H767.704C766.509 243.089 765.539 242.119 765.539 240.923V235.325C765.657 232.462 762.187 231.085 760.176 233.123C754.623 240.017 743.896 245.761 729.528 245.761C704.252 245.761 687.773 227.76 687.773 194.24C687.773 158.809 706.155 141.759 730.099 141.759C744.467 141.759 754.813 147.512 760.176 154.406ZM705.194 193.851C705.194 226.22 709.217 231.012 735.462 231.012C761.517 231.012 765.539 226.22 765.539 193.851C765.539 161.481 761.707 156.499 735.462 156.499C709.217 156.499 705.194 161.481 705.194 193.851ZM848.678 187.736L829.726 184.483C815.738 181.992 813.247 177.779 813.247 170.496C813.437 160.53 817.269 155.556 835.85 155.556C853.253 155.556 858.825 160.702 860.021 171.809C860.139 172.905 861.063 173.748 862.168 173.748H873.664C874.896 173.748 875.902 172.715 875.829 171.474C874.715 152.404 857.258 141.75 836.43 141.75C813.057 141.75 797.547 154.198 797.547 172.018C797.547 188.297 810.194 195.391 825.323 198.263L846.205 202.095C857.702 204.206 861.534 208.038 861.534 215.312C861.534 226.999 857.511 231.982 837.78 231.982C818.048 231.982 812.594 226.292 811.326 214.76C811.208 213.663 810.284 212.83 809.179 212.83H797.61C796.396 212.83 795.409 213.836 795.436 215.05C795.989 235.596 814.615 245.779 836.81 245.779C860.945 245.779 877.605 233.332 877.605 214.551C877.605 198.082 864.958 190.608 848.678 187.736ZM932.405 231.601C953.858 231.601 957.88 227.008 957.88 206.317V146.633C957.88 145.437 958.849 144.468 960.045 144.468H971.804C973 144.468 973.97 145.437 973.97 146.633V240.942C973.97 242.137 973 243.107 971.804 243.107H960.045C958.849 243.107 957.88 242.137 957.88 240.942V236.829C957.835 233.902 954.8 232.444 952.707 234.491C946.583 241.195 937.007 245.788 924.17 245.788C904.438 245.788 891.03 235.252 891.03 211.689V146.624C891.03 145.428 892 144.459 893.196 144.459H904.955C906.151 144.459 907.12 145.428 907.12 146.624V207.277C907.12 227.959 910.952 231.601 932.405 231.601ZM1068.06 144.441V131.794C1068.06 126.82 1072.09 122.788 1077.07 122.788H1085.82C1087.01 122.788 1087.98 121.819 1087.98 120.623V111.165C1087.98 109.969 1087.01 109 1085.82 109H1079.75C1062.51 109 1051.97 118.576 1051.97 135.055V144.441H1039.22C1027.93 144.459 1019.06 146.008 1013.14 153.065C1010.97 155.122 1007.97 153.582 1007.97 150.592V146.615C1007.97 145.419 1007 144.45 1005.8 144.45H994.046C992.85 144.45 991.88 145.419 991.88 146.615V240.923C991.88 242.119 992.85 243.089 994.046 243.089H1005.8C1007 243.089 1007.97 242.119 1007.97 240.923V181.802C1007.97 162.26 1012.95 157.667 1034.4 157.667H1051.97V240.932C1051.97 242.128 1052.94 243.098 1054.14 243.098H1065.9C1067.09 243.098 1068.06 242.128 1068.06 240.932V157.667H1085.84C1087.03 157.667 1088 156.698 1088 155.502V146.624C1088 145.428 1087.03 144.459 1085.84 144.459H1068.06V144.441ZM490.267 218.483C490.683 220.214 492.233 221.437 494.008 221.437H494.017C495.784 221.437 497.324 220.232 497.75 218.519L524.72 110.649C524.964 109.679 525.834 109 526.831 109H540.293C541.734 109 542.784 110.359 542.422 111.754L508.494 241.512C508.25 242.427 507.425 243.07 506.474 243.07H482.457C481.488 243.07 480.646 242.409 480.401 241.476L452.217 132.935C451.782 131.241 450.251 130.054 448.494 130.054H448.249C446.5 130.054 444.969 131.241 444.526 132.935L416.351 241.476C416.106 242.418 415.263 243.07 414.294 243.07H390.277C389.326 243.07 388.493 242.427 388.257 241.512L354.33 111.754C353.967 110.359 355.018 109 356.459 109H369.921C370.917 109 371.787 109.679 372.032 110.649L398.993 218.519C399.418 220.232 400.95 221.437 402.725 221.437C404.501 221.437 406.05 220.214 406.467 218.483L432.386 110.667C432.621 109.689 433.491 109 434.497 109H462.246C463.251 109 464.121 109.689 464.357 110.667L490.267 218.483Z" fill="white"/>
</svg>
